<?xml version="1.0" standalone="no"?>
<!DOCTYPE svg PUBLIC "-//W3C//DTD SVG 20010904//EN"
 "http://www.w3.org/TR/2001/REC-SVG-20010904/DTD/svg10.dtd">
<svg version="1.0" xmlns="http://www.w3.org/2000/svg"
 width="24.000000pt" height="24.000000pt" viewBox="0 0 24.000000 24.000000"
 preserveAspectRatio="xMidYMid meet">

<g transform="translate(0.000000,24.000000) scale(0.100000,-0.100000)"
fill="#942E42" stroke="none">
<path fill="#942E42" d="M111 208 c0 -7 4 -22 8 -33 8 -19 8 -19 21 4 l12 24 19 -24 c10 -13
19 -19 19 -14 0 6 3 20 6 33 6 20 3 22 -40 22 -30 0 -46 -4 -45 -12z"/>
<path fill="#942E42" d="M36 133 c-11 -11 -6 -23 9 -23 8 0 15 4 15 9 0 13 -16 22 -24 14z"/>
<path fill="#942E42" d="M110 125 c0 -8 5 -15 10 -15 6 0 10 7 10 15 0 8 -4 15 -10 15 -5 0
-10 -7 -10 -15z"/>
<path fill="#942E42" d="M180 126 c0 -9 7 -16 16 -16 9 0 14 5 12 12 -6 18 -28 21 -28 4z"/>
<path fill="#942E42" d="M133 95 c-13 -6 -32 -20 -43 -30 -19 -17 -21 -17 -40 0 -20 18 -20
17 -20 -9 0 -39 22 -42 102 -15 68 23 101 49 61 49 -11 0 -23 4 -28 8 -6 5
-20 4 -32 -3z"/>
</g>
</svg>
