<?xml version="1.0" standalone="no"?>
<!DOCTYPE svg PUBLIC "-//W3C//DTD SVG 20010904//EN"
 "http://www.w3.org/TR/2001/REC-SVG-20010904/DTD/svg10.dtd">
<svg version="1.0" xmlns="http://www.w3.org/2000/svg"
 width="40px" height="40px" viewBox="0 0 934.000000 921.000000"
 preserveAspectRatio="xMidYMid meet">

<g transform="translate(0.000000,921.000000) scale(0.100000,-0.100000)"
fill="#38bdf8" stroke="none">
<path d="M0 4605 l0 -4605 4670 0 4670 0 0 4605 0 4605 -4670 0 -4670 0 0
-4605z m5173 2221 c168 -29 393 -99 522 -163 88 -44 218 -125 299 -186 98 -75
160 -131 406 -374 322 -317 437 -395 680 -460 100 -27 367 -24 475 6 96 26
280 115 357 174 86 64 246 223 291 287 27 38 28 19 3 -60 -164 -523 -423 -863
-805 -1055 -224 -114 -425 -165 -722 -185 -386 -25 -741 39 -1041 190 -101 51
-274 161 -318 202 -14 13 -38 33 -54 46 -50 39 -136 119 -346 326 -225 221
-281 268 -415 345 -140 80 -288 115 -485 113 -238 -2 -449 -83 -650 -251 -68
-57 -84 -72 -193 -191 -37 -41 -66 -68 -63 -60 78 248 81 256 156 415 46 100
146 267 191 320 199 237 371 362 639 466 136 53 339 99 500 113 98 9 488 -4
573 -18z m-1933 -2036 c354 -22 643 -111 915 -283 131 -83 276 -208 515 -443
244 -240 270 -263 345 -316 207 -144 403 -196 666 -177 242 17 471 133 678
343 49 50 104 108 120 130 36 45 36 43 16 -33 -41 -159 -153 -409 -251 -562
-107 -168 -246 -312 -404 -418 -125 -84 -226 -133 -382 -185 -183 -61 -339
-86 -573 -93 -462 -13 -822 83 -1166 310 -114 76 -243 189 -484 426 -262 258
-345 325 -495 401 -191 97 -510 117 -717 45 -213 -73 -327 -153 -541 -379 -95
-100 -94 -104 -27 95 114 341 315 638 552 816 255 192 554 296 923 322 63 5
122 9 130 10 8 0 89 -4 180 -9z"/>
</g>
</svg>
